<?xml version="1.0" encoding="UTF-8" standalone="no"?>
<!-- Created with Inkscape (http://www.inkscape.org/) -->

<svg
   width="140.86469mm"
   height="128.05588mm"
   viewBox="0 0 140.86469 128.05588"
   version="1.1"
   id="svg5"
   xml:space="preserve"
   xmlns:inkscape="http://www.inkscape.org/namespaces/inkscape"
   xmlns:sodipodi="http://sodipodi.sourceforge.net/DTD/sodipodi-0.dtd"
   xmlns="http://www.w3.org/2000/svg"
   xmlns:svg="http://www.w3.org/2000/svg"><sodipodi:namedview
     id="namedview7"
     pagecolor="#ffffff"
     bordercolor="#000000"
     borderopacity="0.25"
     inkscape:showpageshadow="2"
     inkscape:pageopacity="0.0"
     inkscape:pagecheckerboard="0"
     inkscape:deskcolor="#d1d1d1"
     inkscape:document-units="mm"
     showgrid="false" /><defs
     id="defs2"><clipPath
       clipPathUnits="userSpaceOnUse"
       id="clipPath150"><path
         d="M 0,500 H 500 V 0 H 0 Z"
         id="path148" /></clipPath><clipPath
       clipPathUnits="userSpaceOnUse"
       id="clipPath254"><path
         d="M 0,500 H 500 V 0 H 0 Z"
         id="path252" /></clipPath><clipPath
       clipPathUnits="userSpaceOnUse"
       id="clipPath400"><path
         d="M 0,500 H 500 V 0 H 0 Z"
         id="path398" /></clipPath><clipPath
       clipPathUnits="userSpaceOnUse"
       id="clipPath420"><path
         d="M 0,500 H 500 V 0 H 0 Z"
         id="path418" /></clipPath><clipPath
       clipPathUnits="userSpaceOnUse"
       id="clipPath504"><path
         d="M 0,500 H 500 V 0 H 0 Z"
         id="path502" /></clipPath></defs><g
     id="g144"
     transform="matrix(0.35277776,0,0,-0.35277778,-15.64353,154.94625)"
     inkscape:export-filename="stack.svg"
     inkscape:export-xdpi="1.8031489"
     inkscape:export-ydpi="1.8031489"><g
       id="g146"
       clip-path="url(#clipPath150)"><g
         id="g152"
         transform="translate(201.9594,331.9178)"><path
           d="m 0,0 v 75.813 c 0,3.467 2.811,6.278 6.278,6.278 h 45.679 c 3.468,0 6.278,-2.811 6.278,-6.278 V 0"
           style="fill:none;stroke:#b3ecff;stroke-width:2;stroke-linecap:butt;stroke-linejoin:miter;stroke-miterlimit:10;stroke-dasharray:none;stroke-opacity:1"
           id="path154" /></g><g
         id="g156"
         transform="translate(208.894,377.5233)"><path
           d="m 0,0 c 0,-3.722 -3.017,-6.739 -6.738,-6.739 -3.723,0 -6.74,3.017 -6.74,6.739 0,3.722 3.017,6.739 6.74,6.739 C -3.017,6.739 0,3.722 0,0"
           style="fill:#00b4f5;fill-opacity:1;fill-rule:nonzero;stroke:none"
           id="path158" /></g><g
         id="g160"
         transform="translate(208.894,377.5233)"><path
           d="m 0,0 c 0,-3.722 -3.017,-6.739 -6.738,-6.739 -3.723,0 -6.74,3.017 -6.74,6.739 0,3.722 3.017,6.739 6.74,6.739 C -3.017,6.739 0,3.722 0,0 Z"
           style="fill:none;stroke:#b3ecff;stroke-width:2;stroke-linecap:butt;stroke-linejoin:miter;stroke-miterlimit:10;stroke-dasharray:none;stroke-opacity:1"
           id="path162" /></g><g
         id="g164"
         transform="translate(205.435,377.577)"><path
           d="m 0,0 c 0,-1.831 -1.484,-3.315 -3.315,-3.315 -1.831,0 -3.315,1.484 -3.315,3.315 0,1.831 1.484,3.315 3.315,3.315 C -1.484,3.315 0,1.831 0,0"
           style="fill:#ffffff;fill-opacity:1;fill-rule:nonzero;stroke:none"
           id="path166" /></g><g
         id="g168"
         transform="translate(84.7988,341.2738)"><path
           d="m 0,0 v -84.988 c 0,-3.18 2.579,-5.76 5.76,-5.76 h 24.725"
           style="fill:none;stroke:#b3ecff;stroke-width:2;stroke-linecap:butt;stroke-linejoin:miter;stroke-miterlimit:10;stroke-dasharray:none;stroke-opacity:1"
           id="path170" /></g><g
         id="g172"
         transform="translate(90.5536,292.1971)"><path
           d="m 0,0 c 0,-3.722 -3.017,-6.738 -6.739,-6.738 -3.721,0 -6.739,3.016 -6.739,6.738 0,3.722 3.018,6.739 6.739,6.739 C -3.017,6.739 0,3.722 0,0"
           style="fill:#00b4f5;fill-opacity:1;fill-rule:nonzero;stroke:none"
           id="path174" /></g><g
         id="g176"
         transform="translate(90.5536,292.1971)"><path
           d="m 0,0 c 0,-3.722 -3.017,-6.738 -6.739,-6.738 -3.721,0 -6.739,3.016 -6.739,6.738 0,3.722 3.018,6.739 6.739,6.739 C -3.017,6.739 0,3.722 0,0 Z"
           style="fill:none;stroke:#b3ecff;stroke-width:2;stroke-linecap:butt;stroke-linejoin:miter;stroke-miterlimit:10;stroke-dasharray:none;stroke-opacity:1"
           id="path178" /></g><g
         id="g180"
         transform="translate(87.0942,292.2518)"><path
           d="m 0,0 c 0,-1.831 -1.484,-3.315 -3.315,-3.315 -1.831,0 -3.315,1.484 -3.315,3.315 0,1.83 1.484,3.314 3.315,3.314 C -1.484,3.314 0,1.83 0,0"
           style="fill:#ffffff;fill-opacity:1;fill-rule:nonzero;stroke:none"
           id="path182" /></g><g
         id="g184"
         transform="translate(122.5575,125.7479)"><path
           d="m 0,0 h -36.56 c -5.349,0 -9.684,4.336 -9.684,9.685 V 43.956 H 11.182 V 11.182 C 11.182,5.007 6.176,0 0,0 Z"
           style="fill:none;stroke:#b3ecff;stroke-width:2;stroke-linecap:butt;stroke-linejoin:miter;stroke-miterlimit:10;stroke-dasharray:none;stroke-opacity:1"
           id="path186" /></g><g
         id="g188"
         transform="translate(109.2665,126.5956)"><path
           d="m 0,0 c 0,-3.722 -3.017,-6.738 -6.739,-6.738 -3.721,0 -6.739,3.016 -6.739,6.738 0,3.723 3.018,6.739 6.739,6.739 C -3.017,6.739 0,3.723 0,0"
           style="fill:#00b4f5;fill-opacity:1;fill-rule:nonzero;stroke:none"
           id="path190" /></g><g
         id="g192"
         transform="translate(109.2665,126.5956)"><path
           d="m 0,0 c 0,-3.722 -3.017,-6.738 -6.739,-6.738 -3.721,0 -6.739,3.016 -6.739,6.738 0,3.723 3.018,6.739 6.739,6.739 C -3.017,6.739 0,3.723 0,0 Z"
           style="fill:none;stroke:#b3ecff;stroke-width:2;stroke-linecap:butt;stroke-linejoin:miter;stroke-miterlimit:10;stroke-dasharray:none;stroke-opacity:1"
           id="path194" /></g><g
         id="g196"
         transform="translate(105.8071,126.6502)"><path
           d="m 0,0 c 0,-1.831 -1.484,-3.315 -3.315,-3.315 -1.831,0 -3.315,1.484 -3.315,3.315 0,1.83 1.484,3.314 3.315,3.314 C -1.484,3.314 0,1.83 0,0"
           style="fill:#ffffff;fill-opacity:1;fill-rule:nonzero;stroke:none"
           id="path198" /></g><g
         id="g200"
         transform="translate(307.9008,106.2088)"><path
           d="m 0,0 -1.343,-10.289 c 0,-6.176 -5.006,-11.182 -11.181,-11.182 h -36.56 c -5.349,0 -9.685,4.335 -9.685,9.684 v 34.271 h 14.04"
           style="fill:none;stroke:#b3ecff;stroke-width:2;stroke-linecap:butt;stroke-linejoin:miter;stroke-miterlimit:10;stroke-dasharray:none;stroke-opacity:1"
           id="path202" /></g><g
         id="g204"
         transform="translate(275.0668,83.9637)"><path
           d="m 0,0 c 0,-3.722 -3.018,-6.739 -6.739,-6.739 -3.722,0 -6.74,3.017 -6.74,6.739 0,3.722 3.018,6.738 6.74,6.738 C -3.018,6.738 0,3.722 0,0"
           style="fill:#00b4f5;fill-opacity:1;fill-rule:nonzero;stroke:none"
           id="path206" /></g><g
         id="g208"
         transform="translate(275.0668,83.9637)"><path
           d="m 0,0 c 0,-3.722 -3.018,-6.739 -6.739,-6.739 -3.722,0 -6.74,3.017 -6.74,6.739 0,3.722 3.018,6.738 6.74,6.738 C -3.018,6.738 0,3.722 0,0 Z"
           style="fill:none;stroke:#b3ecff;stroke-width:2;stroke-linecap:butt;stroke-linejoin:miter;stroke-miterlimit:10;stroke-dasharray:none;stroke-opacity:1"
           id="path210" /></g><g
         id="g212"
         transform="translate(271.6068,84.0174)"><path
           d="m 0,0 c 0,-1.831 -1.484,-3.314 -3.314,-3.314 -1.832,0 -3.316,1.483 -3.316,3.314 0,1.831 1.484,3.315 3.316,3.315 C -1.484,3.315 0,1.831 0,0"
           style="fill:#ffffff;fill-opacity:1;fill-rule:nonzero;stroke:none"
           id="path214" /></g><g
         id="g216"
         transform="translate(321.1703,107.1366)"><path
           d="m 0,0 c 0,-3.56 -43.898,-6.444 -98.049,-6.444 -54.151,0 -98.049,2.884 -98.049,6.444 0,3.559 43.898,6.443 98.049,6.443 C -43.898,6.443 0,3.559 0,0"
           style="fill:#00acff;fill-opacity:1;fill-rule:nonzero;stroke:none"
           id="path218" /></g><g
         id="g220"
         transform="translate(396.5658,407.4989)"><path
           d="m 0,0 c 0,-3.362 -0.64,-6.562 -1.804,-9.479 h -44.095 c -1.164,2.917 -1.804,6.117 -1.804,9.479 0,2.595 0.378,5.098 1.086,7.45 3.046,10.075 12.086,17.374 22.765,17.374 9.962,0 18.488,-6.34 22.058,-15.365 C -0.64,6.542 0,3.352 0,0"
           style="fill:#ffffff;fill-opacity:1;fill-rule:nonzero;stroke:none"
           id="path222" /></g><g
         id="g224"
         transform="translate(419.0356,398.0194)"><path
           d="m 0,0 h -39.421 c 1.087,8.121 6.706,14.739 14.117,16.984 1.775,0.552 3.654,0.842 5.594,0.842 C -9.664,17.826 -1.348,10.076 0,0"
           style="fill:#ffffff;fill-opacity:1;fill-rule:nonzero;stroke:none"
           id="path226" /></g><g
         id="g228"
         transform="translate(363.2807,398.0194)"><path
           d="m 0,0 h -29.349 c 0.018,8.419 6.577,15.236 14.674,15.236 0.409,0 0.818,-0.018 1.218,-0.054 C -5.941,14.54 -0.018,7.994 0,0"
           style="fill:#ffffff;fill-opacity:1;fill-rule:nonzero;stroke:none"
           id="path230" /></g><g
         id="g232"
         transform="translate(375.2777,381.9442)"><path
           d="M 0,0 V 24.668 H -14.608 V 0 h -4.964 l 6.134,-7.016 6.133,-7.016 6.134,7.016 L 4.963,0 Z"
           style="fill:#0098e6;fill-opacity:1;fill-rule:nonzero;stroke:none"
           id="path234" /></g><g
         id="g236"
         transform="translate(284.768,377.4037)"><path
           d="M 52.806708,-0.2514605 -45.856,0 c -4.406986,0.01123203 -7.979,3.572 -7.979,7.979 v 45.856 c 0,4.407 3.572014,7.990232 7.979,7.979 l 98.662708,-0.251461 c 4.405986,-0.01123 7.979,-3.572 7.979,-7.979 V 7.7275395 c 0,-4.407 -3.573,-7.979 -7.979,-7.979"
           style="fill:#ffdb14;fill-opacity:1;fill-rule:nonzero;stroke:none"
           id="path238"
           sodipodi:nodetypes="csssssssc" /></g><g
         id="g240"
         transform="translate(291.0053,429.7142)"><path
           d="m 52.465409,0 c 0,0 -0.133,-45.336 -0.133,-43.626 l -3.2,40.294 c 0,4.41 -3.569,7.98 -7.98,7.98 L 2.3014087,7.989 C 0.59140873,7.989 44.485409,7.98 44.485409,7.98 c 4.4,0 7.98,-3.58 7.98,-7.98"
           style="fill:#ffeb87;fill-opacity:1;fill-rule:nonzero;stroke:none"
           id="path242" /></g></g></g><g
     aria-label="JavaScript"
     id="text246"
     style="font-weight:bold;font-size:5.69013px;font-family:Metropolis;-inkscape-font-specification:Metropolis-Bold;fill:#101010;stroke-width:0.352778"
     transform="translate(-235.64353,-21.442636)"><path
       d="m 307.95879,33.191314 q 0,0.272282 -0.0972,0.511223 -0.0973,0.236162 -0.28895,0.400087 -0.20283,0.175038 -0.489,0.272282 -0.28617,0.09446 -0.70849,0.09446 -0.28617,0 -0.539,-0.02223 -0.25284,-0.01945 -0.44455,-0.05835 v -0.839072 h 0.10003 q 0.13336,0.05001 0.27783,0.09446 0.14448,0.04168 0.36953,0.04168 0.29173,0 0.44732,-0.0778 0.15837,-0.0778 0.22505,-0.216714 0.0639,-0.136141 0.0722,-0.297287 0.008,-0.163925 0.008,-0.416758 v -1.647581 h -0.94743 v -0.761278 h 2.01433 z"
       id="path3643" /><path
       d="M 310.79552,33.591402 V 32.94126 q -0.20282,0.01667 -0.43898,0.04723 -0.23617,0.02778 -0.35842,0.06668 -0.15003,0.04723 -0.2306,0.13892 -0.0778,0.08891 -0.0778,0.236162 0,0.09724 0.0167,0.158368 0.0167,0.06113 0.0834,0.116692 0.0639,0.05557 0.15281,0.08335 0.0889,0.02501 0.27784,0.02501 0.15003,0 0.30284,-0.06112 0.15559,-0.06112 0.27228,-0.161146 z m 0,0.483438 q -0.0806,0.06112 -0.20004,0.147255 -0.11947,0.08613 -0.22505,0.13614 -0.14726,0.06668 -0.30562,0.09724 -0.15837,0.03334 -0.3473,0.03334 -0.44454,0 -0.74461,-0.275061 -0.30006,-0.27506 -0.30006,-0.702931 0,-0.341741 0.15281,-0.558455 0.15281,-0.216714 0.43342,-0.341741 0.27784,-0.125027 0.68904,-0.177817 0.4112,-0.05279 0.85297,-0.07779 v -0.01667 q 0,-0.258389 -0.21116,-0.355633 -0.21116,-0.100022 -0.62236,-0.100022 -0.24727,0 -0.52789,0.08891 -0.28062,0.08613 -0.40287,0.133362 h -0.0917 v -0.752942 q 0.15836,-0.04168 0.514,-0.09724 0.35841,-0.05835 0.71682,-0.05835 0.85296,0 1.23083,0.263946 0.38063,0.261168 0.38063,0.822402 v 2.122685 h -0.99188 z"
       id="path3645" /><path
       d="m 315.8494,31.285343 -1.20304,3.120125 h -1.13358 l -1.1947,-3.120125 h 1.05856 l 0.72238,2.144912 0.71404,-2.144912 z"
       id="path3647" /><path
       d="M 318.29438,33.591402 V 32.94126 q -0.20282,0.01667 -0.43899,0.04723 -0.23616,0.02778 -0.35841,0.06668 -0.15003,0.04723 -0.2306,0.13892 -0.0778,0.08891 -0.0778,0.236162 0,0.09724 0.0167,0.158368 0.0167,0.06113 0.0833,0.116692 0.0639,0.05557 0.15282,0.08335 0.0889,0.02501 0.27783,0.02501 0.15004,0 0.30285,-0.06112 0.15559,-0.06112 0.27228,-0.161146 z m 0,0.483438 q -0.0806,0.06112 -0.20004,0.147255 -0.11948,0.08613 -0.22505,0.13614 -0.14726,0.06668 -0.30563,0.09724 -0.15836,0.03334 -0.34729,0.03334 -0.44455,0 -0.74461,-0.275061 -0.30007,-0.27506 -0.30007,-0.702931 0,-0.341741 0.15281,-0.558455 0.15282,-0.216714 0.43343,-0.341741 0.27784,-0.125027 0.68904,-0.177817 0.4112,-0.05279 0.85297,-0.07779 v -0.01667 q 0,-0.258389 -0.21116,-0.355633 -0.21116,-0.100022 -0.62236,-0.100022 -0.24728,0 -0.52789,0.08891 -0.28062,0.08613 -0.40287,0.133362 h -0.0917 v -0.752942 q 0.15836,-0.04168 0.514,-0.09724 0.35841,-0.05835 0.71682,-0.05835 0.85296,0 1.23082,0.263946 0.38064,0.261168 0.38064,0.822402 v 2.122685 h -0.99188 z"
       id="path3649" /><path
       d="m 323.57331,33.105184 q 0,0.611245 -0.51956,0.994662 -0.51678,0.380638 -1.40586,0.380638 -0.514,0 -0.89742,-0.08891 -0.38064,-0.09169 -0.71404,-0.230606 v -0.991883 h 0.11669 q 0.33063,0.263947 0.73905,0.405644 0.4112,0.141698 0.78906,0.141698 0.0972,0 0.25561,-0.01667 0.15837,-0.01667 0.25839,-0.05557 0.12225,-0.05001 0.20004,-0.125027 0.0806,-0.07502 0.0806,-0.222271 0,-0.136141 -0.1167,-0.233384 -0.11391,-0.100022 -0.33618,-0.152812 -0.23338,-0.05557 -0.49455,-0.1028 -0.25839,-0.05001 -0.48622,-0.125027 -0.52234,-0.169481 -0.75294,-0.458433 -0.22783,-0.291731 -0.22783,-0.72238 0,-0.577904 0.51678,-0.941872 0.51956,-0.366747 1.33362,-0.366747 0.40843,0 0.80574,0.08057 0.40008,0.07779 0.69181,0.197265 v 0.952986 h -0.11391 q -0.25005,-0.200044 -0.61402,-0.333406 -0.36119,-0.136141 -0.73905,-0.136141 -0.13337,0 -0.26673,0.01945 -0.13058,0.01667 -0.25283,0.06668 -0.10836,0.04168 -0.18615,0.127806 -0.0778,0.08335 -0.0778,0.191708 0,0.163925 0.12503,0.252833 0.12503,0.08613 0.47233,0.158368 0.22782,0.04723 0.4362,0.09169 0.21116,0.04445 0.45288,0.122249 0.4751,0.155589 0.70015,0.425092 0.22783,0.266725 0.22783,0.694596 z"
       id="path3651" /><path
       d="m 325.87381,34.48882 q -0.40842,0 -0.74738,-0.09724 -0.33619,-0.09724 -0.58624,-0.300065 -0.24728,-0.202822 -0.38342,-0.511223 -0.13614,-0.308401 -0.13614,-0.72238 0,-0.436206 0.14447,-0.752942 0.14726,-0.316736 0.40843,-0.525114 0.25283,-0.197266 0.58346,-0.288952 0.33063,-0.09169 0.68626,-0.09169 0.31951,0 0.58902,0.06946 0.2695,0.06946 0.50288,0.180595 v 0.852963 h -0.14169 q -0.0583,-0.05001 -0.1417,-0.116692 -0.0806,-0.06668 -0.20005,-0.130584 -0.11391,-0.06112 -0.25005,-0.100022 -0.13614,-0.04168 -0.31674,-0.04168 -0.40008,0 -0.6168,0.255611 -0.21393,0.252833 -0.21393,0.689039 0,0.450098 0.21949,0.683483 0.22227,0.233384 0.62791,0.233384 0.18893,0 0.33897,-0.04168 0.15281,-0.04445 0.25283,-0.1028 0.0945,-0.05557 0.1667,-0.116692 0.0722,-0.06112 0.13337,-0.119471 h 0.14169 V 34.2471 q -0.23616,0.111135 -0.49455,0.175038 -0.25561,0.06668 -0.56679,0.06668 z"
       id="path3653" /><path
       d="m 329.85801,32.238329 h -0.0889 q -0.0639,-0.02223 -0.2056,-0.03334 -0.14169,-0.01111 -0.23616,-0.01111 -0.21393,0 -0.37786,0.02778 -0.16392,0.02778 -0.35285,0.09446 v 2.089345 h -1.00022 v -3.120125 h 1.00022 v 0.458433 q 0.33062,-0.283395 0.57512,-0.375082 0.2445,-0.09447 0.4501,-0.09447 0.0528,0 0.11947,0.0028 0.0667,0.0028 0.11669,0.0083 z"
       id="path3655" /><path
       d="m 331.42502,34.405468 h -1.00022 v -3.120125 h 1.00022 z m 0.0278,-3.564667 h -1.05579 v -0.758498 h 1.05579 z"
       id="path3657" /><path
       d="m 335.62594,32.80234 q 0,0.386196 -0.11947,0.702932 -0.11669,0.316735 -0.3084,0.522336 -0.20005,0.216714 -0.45288,0.327849 -0.25283,0.111135 -0.54178,0.111135 -0.26673,0 -0.45288,-0.05835 -0.18615,-0.05557 -0.38064,-0.158368 v 1.300284 h -1.00022 v -4.264819 h 1.00022 v 0.325071 q 0.23061,-0.183374 0.46955,-0.297287 0.24172,-0.113914 0.55567,-0.113914 0.58346,0 0.90576,0.427871 0.32507,0.427871 0.32507,1.175256 z m -1.03078,0.01945 q 0,-0.455655 -0.15559,-0.661255 -0.15559,-0.205601 -0.49178,-0.205601 -0.14169,0 -0.29173,0.04445 -0.15003,0.04168 -0.28617,0.122248 v 1.569787 q 0.10002,0.0389 0.21394,0.05001 0.11391,0.01111 0.22504,0.01111 0.39731,0 0.5918,-0.230606 0.19449,-0.233384 0.19449,-0.700153 z"
       id="path3659" /><path
       d="m 338.3432,34.377684 q -0.16115,0.04168 -0.34174,0.0639 -0.1806,0.02501 -0.44177,0.02501 -0.58346,0 -0.86963,-0.236162 -0.2834,-0.236163 -0.2834,-0.80851 v -1.458651 h -0.4112 v -0.677926 h 0.4112 v -0.891861 h 1.00022 v 0.891861 h 0.93632 v 0.677926 h -0.93632 v 1.105796 q 0,0.163925 0.003,0.286174 0.003,0.122249 0.0445,0.219492 0.0389,0.09724 0.13614,0.15559 0.10003,0.05557 0.28896,0.05557 0.0778,0 0.20282,-0.03334 0.1278,-0.03334 0.17782,-0.06112 h 0.0834 z"
       id="path3661" /></g><g
     id="g248"
     transform="matrix(0.35277776,0,0,-0.35277778,-15.64353,154.94625)"><g
       id="g250"
       clip-path="url(#clipPath254)"><g
         id="g256"
         transform="translate(424.7016,269.243)"><path
           d="M 0,0 V -67.944 C 0,-74.18 -5.055,-79.235 -11.291,-79.235 H -42.447"
           style="fill:none;stroke:#b3ecff;stroke-width:2;stroke-linecap:butt;stroke-linejoin:miter;stroke-miterlimit:10;stroke-dasharray:none;stroke-opacity:1"
           id="path258" /></g><g
         id="g260"
         transform="translate(431.0356,229.7645)"><path
           d="m 0,0 c 0,-3.722 -3.017,-6.738 -6.738,-6.738 -3.722,0 -6.74,3.016 -6.74,6.738 0,3.722 3.018,6.739 6.74,6.739 C -3.017,6.739 0,3.722 0,0"
           style="fill:#00b4f5;fill-opacity:1;fill-rule:nonzero;stroke:none"
           id="path262" /></g><g
         id="g264"
         transform="translate(431.0356,229.7645)"><path
           d="m 0,0 c 0,-3.722 -3.017,-6.738 -6.738,-6.738 -3.722,0 -6.74,3.016 -6.74,6.738 0,3.722 3.018,6.739 6.74,6.739 C -3.017,6.739 0,3.722 0,0 Z"
           style="fill:none;stroke:#b3ecff;stroke-width:2;stroke-linecap:butt;stroke-linejoin:miter;stroke-miterlimit:10;stroke-dasharray:none;stroke-opacity:1"
           id="path266" /></g><g
         id="g268"
         transform="translate(427.5766,229.8182)"><path
           d="m 0,0 c 0,-1.83 -1.484,-3.314 -3.314,-3.314 -1.832,0 -3.316,1.484 -3.316,3.314 0,1.831 1.484,3.315 3.316,3.315 C -1.484,3.315 0,1.831 0,0"
           style="fill:#ffffff;fill-opacity:1;fill-rule:nonzero;stroke:none"
           id="path270" /></g><g
         id="g272"
         transform="translate(154.745,381.118)"><path
           d="m 0,0 -13.775,6.419 v 18.134 c 0,3.774 -3.059,6.834 -6.834,6.834 H -69.56 c -3.774,0 -6.834,-3.06 -6.834,-6.834 V -7.794 c 0,-3.775 3.06,-6.834 6.834,-6.834 h 48.951 c 3.775,0 6.834,3.059 6.834,6.834 v 4.688 z"
           style="fill:#ffffff;fill-opacity:1;fill-rule:nonzero;stroke:none"
           id="path274" /></g><path
         d="M 276.086,113.697 H 225.93 v 62.695 h 50.156 z"
         style="fill:#e7e7e7;fill-opacity:1;fill-rule:nonzero;stroke:none"
         id="path276" /><g
         id="g278"
         transform="translate(403.0102,344.287)"><path
           d="m 0,0 v -190.77 c 0,-3.36 -2.72,-6.08 -6.07,-6.08 h -291.81 c -3.35,0 -6.07,2.72 -6.07,6.08 V 0 c 0,3.36 2.72,6.08 6.07,6.08 H -6.07 C -2.72,6.08 0,3.36 0,0"
           style="fill:#cccccc;fill-opacity:1;fill-rule:nonzero;stroke:none"
           id="path280" /></g><g
         id="g282"
         transform="translate(403.0102,344.287)"
         style="fill:#4d4d4d"><path
           d="M 0,0 V -153.41 H -303.95 V 0 c 0,3.36 2.72,6.08 6.07,6.08 H -6.07 C -2.72,6.08 0,3.36 0,0"
           style="fill:#4d4d4d;fill-opacity:1;fill-rule:nonzero;stroke:none"
           id="path284" /></g><g
         id="g286"
         transform="translate(302.8041,108.8514)"
         style="fill:#cccccc"><path
           d="m 0,0 h -102.21 c 0.06,3.91 3.25,7.061 7.18,7.061 H -7.181 C -3.25,7.061 -0.061,3.91 0,0"
           style="fill:#cccccc;fill-opacity:1;fill-rule:nonzero;stroke:none"
           id="path288" /></g><g
         id="g290"
         transform="translate(390.89,335.9173)"><path
           d="m 0,0 v -130.98 c 0,-1.8 -1.46,-3.26 -3.26,-3.26 h -274.56 c -1.8,0 -3.25,1.46 -3.25,3.26 V 0 c 0,1.8 1.45,3.26 3.25,3.26 H -3.26 C -1.46,3.26 0,1.8 0,0"
           style="fill:#222c39;fill-opacity:1;fill-rule:nonzero;stroke:none"
           id="path292" /></g><g
         id="g294"
         transform="translate(258.0502,171.1131)"><path
           d="m 0,0 c 0,-3.73 -3.024,-6.755 -6.755,-6.755 -3.73,0 -6.755,3.025 -6.755,6.755 0,3.731 3.025,6.755 6.755,6.755 C -3.024,6.755 0,3.731 0,0"
           style="fill:#e7e7e7;fill-opacity:1;fill-rule:nonzero;stroke:none"
           id="path296" /></g><g
         id="g298"
         transform="translate(390.89,335.9173)"><path
           d="M 0,0 V -16.57 H -281.07 V 0 c 0,1.8 1.45,3.26 3.25,3.26 H -3.26 C -1.46,3.26 0,1.8 0,0"
           style="fill:#ffffff;fill-opacity:1;fill-rule:nonzero;stroke:none"
           id="path300" /></g><g
         id="g302"
         transform="translate(359.6596,328.766)"><path
           d="m 0,0 c 0,-1.413 -1.146,-2.558 -2.558,-2.558 -1.413,0 -2.558,1.145 -2.558,2.558 0,1.413 1.145,2.558 2.558,2.558 C -1.146,2.558 0,1.413 0,0"
           style="fill:#ff8600;fill-opacity:1;fill-rule:nonzero;stroke:none"
           id="path304" /></g><g
         id="g306"
         transform="translate(370.893,328.766)"><path
           d="m 0,0 c 0,-1.413 -1.146,-2.558 -2.558,-2.558 -1.413,0 -2.558,1.145 -2.558,2.558 0,1.413 1.145,2.558 2.558,2.558 C -1.146,2.558 0,1.413 0,0"
           style="fill:#0098e6;fill-opacity:1;fill-rule:nonzero;stroke:none"
           id="path308" /></g><g
         id="g310"
         transform="translate(382.1264,328.766)"><path
           d="m 0,0 c 0,-1.413 -1.146,-2.558 -2.558,-2.558 -1.413,0 -2.557,1.145 -2.557,2.558 0,1.413 1.144,2.558 2.557,2.558 C -1.146,2.558 0,1.413 0,0"
           style="fill:#00acff;fill-opacity:1;fill-rule:nonzero;stroke:none"
           id="path312" /></g><path
         d="m 146.068,303.279 h -20.219 v 5.708 h 20.219 z"
         style="fill:#0098e6;fill-opacity:1;fill-rule:nonzero;stroke:none"
         id="path314" /><path
         d="m 201.376,303.279 h -48.459 v 5.375 h 48.459 z"
         style="fill:#0098e6;fill-opacity:1;fill-rule:nonzero;stroke:none"
         id="path316" /><path
         d="m 146.068,288.662 h -20.219 v 5.708 h 20.219 z"
         style="fill:#ffdb14;fill-opacity:1;fill-rule:nonzero;stroke:none"
         id="path318" /><path
         d="m 188.384,288.662 h -35.467 v 5.375 h 35.467 z"
         style="fill:#00ad7f;fill-opacity:1;fill-rule:nonzero;stroke:none"
         id="path320" /><path
         d="m 243.342,288.662 h -47.806 v 5.375 h 47.806 z"
         style="fill:#0098e6;fill-opacity:1;fill-rule:nonzero;stroke:none"
         id="path322" /><path
         d="m 188.384,275.725 h -35.467 v 5.375 h 35.467 z"
         style="fill:#0098e6;fill-opacity:1;fill-rule:nonzero;stroke:none"
         id="path324" /><path
         d="m 243.342,275.725 h -47.806 v 5.375 h 47.806 z"
         style="fill:#00acff;fill-opacity:1;fill-rule:nonzero;stroke:none"
         id="path326" /><path
         d="m 188.384,262.789 h -35.467 v 5.375 h 35.467 z"
         style="fill:#0098e6;fill-opacity:1;fill-rule:nonzero;stroke:none"
         id="path328" /><path
         d="m 243.342,262.789 h -47.806 v 5.375 h 47.806 z"
         style="fill:#0098e6;fill-opacity:1;fill-rule:nonzero;stroke:none"
         id="path330" /><path
         d="m 146.068,249.852 h -20.219 v 5.708 h 20.219 z"
         style="fill:#ffdb14;fill-opacity:1;fill-rule:nonzero;stroke:none"
         id="path332" /><path
         d="m 188.384,249.852 h -35.467 v 5.375 h 35.467 z"
         style="fill:#00ad7f;fill-opacity:1;fill-rule:nonzero;stroke:none"
         id="path334" /><path
         d="m 188.384,236.916 h -35.467 v 5.375 h 35.467 z"
         style="fill:#0098e6;fill-opacity:1;fill-rule:nonzero;stroke:none"
         id="path336" /><path
         d="m 243.342,236.916 h -47.806 v 5.375 h 47.806 z"
         style="fill:#0098e6;fill-opacity:1;fill-rule:nonzero;stroke:none"
         id="path338" /><path
         d="m 188.384,223.979 h -35.467 v 5.375 h 35.467 z"
         style="fill:#0098e6;fill-opacity:1;fill-rule:nonzero;stroke:none"
         id="path340" /><path
         d="m 243.342,223.979 h -47.806 v 5.375 h 47.806 z"
         style="fill:#0098e6;fill-opacity:1;fill-rule:nonzero;stroke:none"
         id="path342" /><path
         d="m 188.384,211.043 h -35.467 v 5.375 h 35.467 z"
         style="fill:#0098e6;fill-opacity:1;fill-rule:nonzero;stroke:none"
         id="path344" /><path
         d="m 243.342,211.043 h -47.806 v 5.375 h 47.806 z"
         style="fill:#0098e6;fill-opacity:1;fill-rule:nonzero;stroke:none"
         id="path346" /><path
         d="M 278.289,303.279 H 258.07 v 5.708 h 20.219 z"
         style="fill:#0098e6;fill-opacity:1;fill-rule:nonzero;stroke:none"
         id="path348" /><path
         d="m 333.597,303.279 h -48.46 v 5.375 h 48.46 z"
         style="fill:#0098e6;fill-opacity:1;fill-rule:nonzero;stroke:none"
         id="path350" /><path
         d="M 278.289,288.662 H 258.07 v 5.708 h 20.219 z"
         style="fill:#ffdb14;fill-opacity:1;fill-rule:nonzero;stroke:none"
         id="path352" /><path
         d="m 320.605,288.662 h -35.468 v 5.375 h 35.468 z"
         style="fill:#00ad7f;fill-opacity:1;fill-rule:nonzero;stroke:none"
         id="path354" /><path
         d="m 375.563,288.662 h -47.806 v 5.375 h 47.806 z"
         style="fill:#0098e6;fill-opacity:1;fill-rule:nonzero;stroke:none"
         id="path356" /><path
         d="m 320.605,275.725 h -35.468 v 5.375 h 35.468 z"
         style="fill:#0098e6;fill-opacity:1;fill-rule:nonzero;stroke:none"
         id="path358" /><path
         d="m 375.563,275.725 h -47.806 v 5.375 h 47.806 z"
         style="fill:#00acff;fill-opacity:1;fill-rule:nonzero;stroke:none"
         id="path360" /><path
         d="m 320.605,262.789 h -35.468 v 5.375 h 35.468 z"
         style="fill:#0098e6;fill-opacity:1;fill-rule:nonzero;stroke:none"
         id="path362" /><path
         d="m 375.563,262.789 h -47.806 v 5.375 h 47.806 z"
         style="fill:#0098e6;fill-opacity:1;fill-rule:nonzero;stroke:none"
         id="path364" /><path
         d="M 278.289,249.852 H 258.07 v 5.708 h 20.219 z"
         style="fill:#ffdb14;fill-opacity:1;fill-rule:nonzero;stroke:none"
         id="path366" /><path
         d="m 320.605,249.852 h -35.468 v 5.375 h 35.468 z"
         style="fill:#00ad7f;fill-opacity:1;fill-rule:nonzero;stroke:none"
         id="path368" /><path
         d="m 375.563,249.852 h -47.806 v 5.375 h 47.806 z"
         style="fill:#0098e6;fill-opacity:1;fill-rule:nonzero;stroke:none"
         id="path370" /><path
         d="m 375.563,236.916 h -47.806 v 5.375 h 47.806 z"
         style="fill:#0098e6;fill-opacity:1;fill-rule:nonzero;stroke:none"
         id="path372" /><path
         d="m 320.605,223.979 h -35.468 v 5.375 h 35.468 z"
         style="fill:#0098e6;fill-opacity:1;fill-rule:nonzero;stroke:none"
         id="path374" /><path
         d="m 375.563,223.979 h -47.806 v 5.375 h 47.806 z"
         style="fill:#0098e6;fill-opacity:1;fill-rule:nonzero;stroke:none"
         id="path376" /><path
         d="m 320.605,211.043 h -35.468 v 5.375 h 35.468 z"
         style="fill:#0098e6;fill-opacity:1;fill-rule:nonzero;stroke:none"
         id="path378" /><path
         d="m 375.563,211.043 h -47.806 v 5.375 h 47.806 z"
         style="fill:#0098e6;fill-opacity:1;fill-rule:nonzero;stroke:none"
         id="path380" /><g
         id="g382"
         transform="translate(276.0863,133.8836)"
         style="fill:#4d4d4d"><path
           d="m 0,0 -50.088,9.722 v 3.915 H 0 Z"
           style="fill:#4d4d4d;fill-opacity:1;fill-rule:nonzero;stroke:none"
           id="path384" /></g><g
         id="g386"
         transform="translate(111.2548,331.745)"><path
           d="m 0,0 h -58.931947 c -4.407,0 -7.979,3.572 -7.979,7.979 v 45.856 c 0,4.407 3.572,7.979 7.979,7.979 H 0 c 4.407,0 7.979,-3.572 7.979,-7.979 V 7.979 C 7.979,3.572 4.407,0 0,0"
           style="fill:#0098e6;fill-opacity:1;fill-rule:nonzero;stroke:none"
           id="path388"
           sodipodi:nodetypes="csssssssc" /></g></g></g><g
     aria-label="jQuery"
     id="text392"
     style="font-weight:bold;font-size:5.69013px;font-family:Metropolis;-inkscape-font-specification:Metropolis-Bold;fill:#ffffff;stroke-width:0.352778"
     transform="translate(-235.64353,-21.442636)"><path
       d="m 239.67229,50.74565 q 0,0.527893 -0.32507,0.822402 -0.32507,0.297287 -0.83629,0.297287 -0.27229,0 -0.49733,-0.02501 -0.22228,-0.02223 -0.32508,-0.04723 v -0.716823 h 0.0778 q 0.0833,0.02778 0.20838,0.04723 0.12502,0.01945 0.19726,0.01945 0.28895,0 0.39453,-0.17226 0.10558,-0.172259 0.10558,-0.56679 V 48.24788 h -0.59179 v -0.677926 h 1.59201 z m 0,-3.620234 h -1.06412 v -0.758499 h 1.06412 z"
       id="path3664" /><path
       d="m 243.27863,49.670416 q 0.15559,-0.18893 0.23061,-0.444542 0.075,-0.258389 0.075,-0.605687 0,-0.372304 -0.0861,-0.633472 -0.0861,-0.261168 -0.22504,-0.422314 -0.1417,-0.166703 -0.32785,-0.24172 -0.18338,-0.07502 -0.38342,-0.07502 -0.20282,0 -0.38342,0.07224 -0.17781,0.07224 -0.32785,0.238941 -0.13892,0.155589 -0.22782,0.430649 -0.0861,0.272282 -0.0861,0.633472 0,0.369525 0.0834,0.630693 0.0861,0.25839 0.22505,0.422314 0.13892,0.163925 0.32507,0.24172 0.18615,0.07779 0.39175,0.07779 0.2056,0 0.39175,-0.07779 0.18615,-0.08057 0.32507,-0.247276 z m 0.11392,0.969656 q 0.0111,0.27506 0.15003,0.39453 0.13892,0.119471 0.4751,0.119471 0.11392,0 0.26951,-0.0389 0.15559,-0.0389 0.21671,-0.06946 h 0.10558 v 0.733493 q -0.15559,0.03612 -0.33896,0.0639 -0.1806,0.02778 -0.55568,0.02778 -0.33063,0 -0.57791,-0.08335 -0.24449,-0.08057 -0.40842,-0.230606 -0.16114,-0.147254 -0.24172,-0.347298 -0.0806,-0.200043 -0.0945,-0.444541 -0.92798,-0.05279 -1.44754,-0.61958 -0.51678,-0.569568 -0.51678,-1.522554 0,-0.99744 0.56679,-1.575344 0.56679,-0.580682 1.56423,-0.580682 0.99466,0 1.56423,0.580682 0.56957,0.577904 0.56957,1.575344 0,0.736272 -0.33341,1.2725 -0.3334,0.533449 -0.96687,0.744607 z"
       id="path3666" /><path
       d="m 248.56034,50.690083 h -1.00022 v -0.34452 q -0.27784,0.211157 -0.50844,0.322292 -0.23061,0.108357 -0.55012,0.108357 -0.51678,0 -0.7974,-0.297287 -0.27784,-0.297287 -0.27784,-0.877969 v -2.030999 h 1.00578 v 1.54756 q 0,0.236163 0.0139,0.394531 0.0167,0.155589 0.0722,0.258389 0.0528,0.102801 0.15837,0.150033 0.10835,0.04723 0.30006,0.04723 0.12781,0 0.2834,-0.04723 0.15559,-0.04723 0.30006,-0.138919 v -2.211594 h 1.00022 z"
       id="path3668" /><path
       d="m 252.57788,49.314783 h -2.28939 q 0.0222,0.366746 0.27784,0.561233 0.25839,0.194487 0.7585,0.194487 0.31674,0 0.61402,-0.113914 0.29729,-0.113914 0.46955,-0.244498 h 0.11114 v 0.802953 q -0.33897,0.136141 -0.63903,0.197266 -0.30007,0.06112 -0.66403,0.06112 -0.9391,0 -1.43921,-0.422314 -0.50011,-0.422315 -0.50011,-1.203041 0,-0.77239 0.47233,-1.222488 0.4751,-0.452877 1.30028,-0.452877 0.76128,0 1.1447,0.386195 0.38341,0.383417 0.38341,1.105797 z m -0.99466,-0.586239 q -0.008,-0.313958 -0.15559,-0.472326 -0.14725,-0.158368 -0.45843,-0.158368 -0.28895,0 -0.4751,0.150033 -0.18616,0.150033 -0.20838,0.480661 z"
       id="path3670" /><path
       d="m 255.5452,48.522943 h -0.0889 q -0.0639,-0.02223 -0.2056,-0.03334 -0.1417,-0.01111 -0.23616,-0.01111 -0.21394,0 -0.37786,0.02778 -0.16393,0.02778 -0.35286,0.09446 v 2.089345 h -1.00022 v -3.120126 h 1.00022 v 0.458434 q 0.33063,-0.283395 0.57513,-0.375082 0.24449,-0.09446 0.45009,-0.09446 0.0528,0 0.11948,0.0028 0.0667,0.0028 0.11669,0.0083 z"
       id="path3672" /><path
       d="m 257.52063,49.587064 0.71127,-2.017107 h 1.028 l -1.73371,4.26482 h -1.08357 l 0.49455,-1.166922 -1.21415,-3.097898 h 1.05022 z"
       id="path3674" /></g><g
     id="g394"
     transform="matrix(0.35277776,0,0,-0.35277778,-15.64353,154.94625)"><g
       id="g396"
       clip-path="url(#clipPath400)"><g
         id="g402"
         transform="translate(117.5605,383.6634)"><path
           d="m 0,0 c 0,0 -0.133,-45.336 -0.133,-43.626 l -3.2,40.293 c 0,4.411 -3.569,7.98 -7.98,7.98 L -50.164,7.989 C -51.874,7.989 -7.98,7.98 -7.98,7.98 -3.58,7.98 0,4.4 0,0"
           style="fill:#00acff;fill-opacity:1;fill-rule:nonzero;stroke:none"
           id="path404" /></g><g
         id="g406"
         transform="translate(435.6664,264.119)"><path
           d="m 0,0 h -45.856 c -4.408,0 -7.98,3.572 -7.98,7.979 v 45.856 c 0,4.407 3.572,7.979 7.98,7.979 H 0 c 4.406,0 7.979,-3.572 7.979,-7.979 V 7.979 C 7.979,3.572 4.406,0 0,0"
           style="fill:#0098e6;fill-opacity:1;fill-rule:nonzero;stroke:none"
           id="path408" /></g></g></g><g
     aria-label="HTML"
     id="text412"
     style="font-weight:bold;font-size:5.69013px;font-family:Metropolis;-inkscape-font-specification:Metropolis-Bold;fill:#ffffff;stroke-width:0.352778"
     transform="translate(-235.64353,-21.442636)"><path
       d="m 361.48395,74.369614 h -1.0669 v -1.82262 h -1.57534 v 1.82262 h -1.0669 V 70.2326 h 1.0669 v 1.514219 h 1.57534 V 70.2326 h 1.0669 z"
       id="path3805" /><path
       d="m 365.23941,71.032775 h -1.29195 v 3.336839 h -1.0669 v -3.336839 h -1.29195 V 70.2326 h 3.6508 z"
       id="path3807" /><path
       d="m 369.97564,74.369614 h -1.06135 v -2.770049 l -0.76683,1.797614 h -0.73627 l -0.76683,-1.797614 v 2.770049 h -1.00578 V 70.2326 h 1.23916 l 0.93076,2.075453 0.92798,-2.075453 h 1.23916 z"
       id="path3809" /><path
       d="m 373.55591,74.369614 h -2.98398 V 70.2326 h 1.0669 v 3.336839 h 1.91708 z"
       id="path3811" /></g><g
     id="g414"
     transform="matrix(0.35277776,0,0,-0.35277778,-15.64353,154.94625)"><g
       id="g416"
       clip-path="url(#clipPath420)"><g
         id="g422"
         transform="translate(441.6391,316.0936)"><path
           d="m 0,0 c 0,0 -0.133,-45.337 -0.133,-43.627 l -3.199,40.294 c 0,4.41 -3.57,7.98 -7.981,7.98 l -38.85,3.342 c -1.71,0 42.184,-0.01 42.184,-0.01 C -3.58,7.979 0,4.399 0,0"
           style="fill:#00acff;fill-opacity:1;fill-rule:nonzero;stroke:none"
           id="path424" /></g><g
         id="g426"
         transform="translate(380.3676,97.5916)"><path
           d="m 0,0 h -45.856 c -4.407,0 -7.979,3.572 -7.979,7.979 v 45.856 c 0,4.406 3.572,7.978 7.979,7.978 H 0 c 4.406,0 7.979,-3.572 7.979,-7.978 V 7.979 C 7.979,3.572 4.406,0 0,0"
           style="fill:#0098e6;fill-opacity:1;fill-rule:nonzero;stroke:none"
           id="path428" /></g></g></g><g
     aria-label="CSS"
     id="text432"
     style="font-weight:bold;font-size:5.69013px;font-family:Metropolis;-inkscape-font-specification:Metropolis-Bold;fill:#ffffff;stroke-width:0.352778"
     transform="translate(-235.64353,-21.442636)"><path
       d="m 342.98554,133.19767 q -0.46121,0 -0.85296,-0.13614 -0.38897,-0.13614 -0.66959,-0.40565 -0.28062,-0.2695 -0.43621,-0.67236 -0.15281,-0.40287 -0.15281,-0.93076 0,-0.49178 0.14726,-0.89186 0.14725,-0.40009 0.42787,-0.68627 0.2695,-0.27506 0.66681,-0.42509 0.40009,-0.15003 0.87241,-0.15003 0.26117,0 0.46955,0.0306 0.21116,0.0278 0.38897,0.075 0.18616,0.0528 0.33619,0.11947 0.15281,0.0639 0.26672,0.11947 v 1.003 h -0.12225 q -0.0778,-0.0667 -0.19726,-0.15837 -0.11669,-0.0917 -0.26673,-0.1806 -0.15281,-0.0889 -0.33062,-0.15003 -0.17782,-0.0611 -0.38064,-0.0611 -0.22505,0 -0.42787,0.0722 -0.20283,0.0695 -0.37509,0.23339 -0.16392,0.15837 -0.26672,0.41953 -0.10002,0.26117 -0.10002,0.63348 0,0.38897 0.10835,0.65014 0.11114,0.26117 0.27784,0.4112 0.16948,0.15281 0.37786,0.21949 0.20838,0.0639 0.4112,0.0639 0.19449,0 0.38342,-0.0583 0.19171,-0.0583 0.35286,-0.15837 0.13614,-0.0806 0.25283,-0.17226 0.11669,-0.0917 0.19171,-0.15837 h 0.11113 v 0.98911 q -0.15559,0.0695 -0.29728,0.13058 -0.1417,0.0611 -0.29729,0.10558 -0.20282,0.0583 -0.38064,0.0889 -0.17782,0.0306 -0.489,0.0306 z"
       id="path3798" /><path
       d="m 348.54509,131.81681 q 0,0.61125 -0.51956,0.99466 -0.51678,0.38064 -1.40586,0.38064 -0.514,0 -0.89742,-0.0889 -0.38064,-0.0917 -0.71404,-0.2306 v -0.99188 h 0.11669 q 0.33063,0.26394 0.73905,0.40564 0.4112,0.1417 0.78906,0.1417 0.0972,0 0.25561,-0.0167 0.15837,-0.0167 0.25839,-0.0556 0.12225,-0.05 0.20005,-0.12503 0.0806,-0.075 0.0806,-0.22227 0,-0.13614 -0.11669,-0.23338 -0.11392,-0.10003 -0.33619,-0.15281 -0.23338,-0.0556 -0.49455,-0.1028 -0.25839,-0.05 -0.48622,-0.12503 -0.52233,-0.16948 -0.75294,-0.45844 -0.22783,-0.29173 -0.22783,-0.72238 0,-0.5779 0.51678,-0.94187 0.51956,-0.36674 1.33363,-0.36674 0.40842,0 0.80573,0.0806 0.40009,0.0778 0.69182,0.19726 v 0.95299 h -0.11392 q -0.25005,-0.20004 -0.61402,-0.33341 -0.36119,-0.13614 -0.73905,-0.13614 -0.13336,0 -0.26673,0.0195 -0.13058,0.0167 -0.25283,0.0667 -0.10836,0.0417 -0.18615,0.12781 -0.0778,0.0833 -0.0778,0.19171 0,0.16392 0.12502,0.25283 0.12503,0.0861 0.47233,0.15837 0.22783,0.0472 0.4362,0.0917 0.21116,0.0445 0.45288,0.12225 0.4751,0.15559 0.70015,0.4251 0.22783,0.26672 0.22783,0.69459 z"
       id="path3800" /><path
       d="m 352.58764,131.81681 q 0,0.61125 -0.51956,0.99466 -0.51678,0.38064 -1.40586,0.38064 -0.514,0 -0.89742,-0.0889 -0.38064,-0.0917 -0.71404,-0.2306 v -0.99188 h 0.11669 q 0.33063,0.26394 0.73905,0.40564 0.4112,0.1417 0.78906,0.1417 0.0972,0 0.25561,-0.0167 0.15837,-0.0167 0.25839,-0.0556 0.12225,-0.05 0.20005,-0.12503 0.0806,-0.075 0.0806,-0.22227 0,-0.13614 -0.11669,-0.23338 -0.11392,-0.10003 -0.33619,-0.15281 -0.23338,-0.0556 -0.49455,-0.1028 -0.25839,-0.05 -0.48622,-0.12503 -0.52233,-0.16948 -0.75294,-0.45844 -0.22783,-0.29173 -0.22783,-0.72238 0,-0.5779 0.51678,-0.94187 0.51956,-0.36674 1.33363,-0.36674 0.40842,0 0.80573,0.0806 0.40008,0.0778 0.69182,0.19726 v 0.95299 h -0.11392 q -0.25005,-0.20004 -0.61402,-0.33341 -0.36119,-0.13614 -0.73905,-0.13614 -0.13336,0 -0.26673,0.0195 -0.13058,0.0167 -0.25283,0.0667 -0.10836,0.0417 -0.18615,0.12781 -0.0778,0.0833 -0.0778,0.19171 0,0.16392 0.12503,0.25283 0.12503,0.0861 0.47233,0.15837 0.22782,0.0472 0.4362,0.0917 0.21116,0.0445 0.45288,0.12225 0.4751,0.15559 0.70015,0.4251 0.22783,0.26672 0.22783,0.69459 z"
       id="path3802" /></g><g
     aria-label="JS"
     id="text496"
     style="font-weight:bold;font-size:5.69013px;font-family:Metropolis;-inkscape-font-specification:Metropolis-Bold;fill:#ffffff;stroke-width:0.352778"
     transform="translate(-235.64353,-21.442636)"><path
       d="m 250.21763,110.59644 q 0,0.27228 -0.0973,0.51122 -0.0972,0.23616 -0.28895,0.40009 -0.20282,0.17504 -0.489,0.27228 -0.28617,0.0945 -0.70848,0.0945 -0.28618,0 -0.53901,-0.0222 -0.25283,-0.0195 -0.44454,-0.0584 v -0.83907 h 0.10002 q 0.13336,0.05 0.27784,0.0945 0.14447,0.0417 0.36952,0.0417 0.29173,0 0.44732,-0.0778 0.15837,-0.0778 0.22505,-0.21672 0.0639,-0.13614 0.0722,-0.29728 0.008,-0.16393 0.008,-0.41676 v -1.64758 h -0.94743 v -0.76128 h 2.01433 z"
       id="path3793" /><path
       d="m 254.47455,110.51031 q 0,0.61124 -0.51955,0.99466 -0.51678,0.38064 -1.40587,0.38064 -0.514,0 -0.89741,-0.0889 -0.38064,-0.0917 -0.71405,-0.23061 v -0.99188 h 0.11669 q 0.33063,0.26395 0.73905,0.40565 0.4112,0.14169 0.78906,0.14169 0.0973,0 0.25562,-0.0167 0.15836,-0.0167 0.25838,-0.0556 0.12225,-0.05 0.20005,-0.12503 0.0806,-0.075 0.0806,-0.22227 0,-0.13614 -0.11669,-0.23339 -0.11391,-0.10002 -0.33619,-0.15281 -0.23338,-0.0556 -0.49455,-0.1028 -0.25839,-0.05 -0.48621,-0.12503 -0.52234,-0.16948 -0.75295,-0.45843 -0.22782,-0.29173 -0.22782,-0.72238 0,-0.5779 0.51678,-0.94187 0.51955,-0.36675 1.33362,-0.36675 0.40842,0 0.80573,0.0806 0.40009,0.0778 0.69182,0.19726 v 0.95299 h -0.11392 q -0.25005,-0.20005 -0.61402,-0.33341 -0.36119,-0.13614 -0.73905,-0.13614 -0.13336,0 -0.26672,0.0194 -0.13059,0.0167 -0.25284,0.0667 -0.10835,0.0417 -0.18615,0.12781 -0.0778,0.0833 -0.0778,0.1917 0,0.16393 0.12502,0.25284 0.12503,0.0861 0.47233,0.15836 0.22783,0.0472 0.43621,0.0917 0.21115,0.0445 0.45287,0.12225 0.47511,0.15559 0.70016,0.42509 0.22782,0.26673 0.22782,0.6946 z"
       id="path3795" /></g><g
     id="g498"
     transform="matrix(0.35277776,0,0,-0.35277778,-15.64353,154.94625)"><g
       id="g500"
       clip-path="url(#clipPath504)"><g
         id="g506"
         transform="translate(118.122,209.3211)"><path
           d="m 0,0 c 0,0 -0.133,-45.336 -0.133,-43.626 l -3.2,40.294 c 0,4.409 -3.569,7.979 -7.98,7.979 l -38.851,3.342 c -1.71,0 42.184,-0.01 42.184,-0.01 C -3.58,7.979 0,4.4 0,0"
           style="fill:#00acff;fill-opacity:1;fill-rule:nonzero;stroke:none"
           id="path508" /></g></g></g></svg>
