<svg width="50" height="50" viewBox="0 0 50 50" fill="none" xmlns="http://www.w3.org/2000/svg">
<path d="M39.2857 0H10.7143C4.79695 0 0 4.79695 0 10.7143V39.2857C0 45.203 4.79695 50 10.7143 50H39.2857C45.203 50 50 45.203 50 39.2857V10.7143C50 4.79695 45.203 0 39.2857 0Z" fill="url(#paint0_radial_111_10)"/>
<path d="M39.2857 0H10.7143C4.79695 0 0 4.79695 0 10.7143V39.2857C0 45.203 4.79695 50 10.7143 50H39.2857C45.203 50 50 45.203 50 39.2857V10.7143C50 4.79695 45.203 0 39.2857 0Z" fill="url(#paint1_radial_111_10)"/>
<path d="M39.2857 0H10.7143C4.79695 0 0 4.79695 0 10.7143V39.2857C0 45.203 4.79695 50 10.7143 50H39.2857C45.203 50 50 45.203 50 39.2857V10.7143C50 4.79695 45.203 0 39.2857 0Z" fill="url(#paint2_radial_111_10)"/>
<path d="M37.5002 15.1786C37.5002 16.6579 36.3009 17.8571 34.8216 17.8571C33.3424 17.8571 32.1431 16.6579 32.1431 15.1786C32.1431 13.6992 33.3424 12.5 34.8216 12.5C36.3009 12.5 37.5002 13.6992 37.5002 15.1786Z" fill="white"/>
<path fill-rule="evenodd" clip-rule="evenodd" d="M24.9999 33.9294C29.9309 33.9294 33.9284 29.9319 33.9284 25.0008C33.9284 20.0698 29.9309 16.0723 24.9999 16.0723C20.0688 16.0723 16.0713 20.0698 16.0713 25.0008C16.0713 29.9319 20.0688 33.9294 24.9999 33.9294ZM24.9999 30.358C27.9586 30.358 30.357 27.9596 30.357 25.0008C30.357 22.0421 27.9586 19.6437 24.9999 19.6437C22.0411 19.6437 19.6427 22.0421 19.6427 25.0008C19.6427 27.9596 22.0411 30.358 24.9999 30.358Z" fill="white"/>
<path fill-rule="evenodd" clip-rule="evenodd" d="M7.14307 24.2854C7.14307 18.2849 7.14307 15.2845 8.31085 12.9927C9.33807 10.9766 10.9771 9.33758 12.9932 8.31036C15.285 7.14258 18.2854 7.14258 24.2859 7.14258H25.7145C31.715 7.14258 34.7154 7.14258 37.0072 8.31036C39.0232 9.33758 40.6624 10.9766 41.6895 12.9927C42.8574 15.2845 42.8574 18.2849 42.8574 24.2854V25.714C42.8574 31.7145 42.8574 34.7149 41.6895 37.0067C40.6624 39.0228 39.0232 40.6619 37.0072 41.689C34.7154 42.8569 31.715 42.8569 25.7145 42.8569H24.2859C18.2854 42.8569 15.285 42.8569 12.9932 41.689C10.9771 40.6619 9.33807 39.0228 8.31085 37.0067C7.14307 34.7149 7.14307 31.7145 7.14307 25.714V24.2854ZM24.2859 10.714H25.7145C28.7738 10.714 30.8532 10.7168 32.4607 10.8481C34.0266 10.976 34.8274 11.2079 35.3859 11.4925C36.7299 12.1773 37.8225 13.2701 38.5074 14.614C38.792 15.1726 39.024 15.9733 39.1518 17.5392C39.2831 19.1467 39.2859 21.2262 39.2859 24.2854V25.714C39.2859 28.7733 39.2831 30.8528 39.1518 32.4603C39.024 34.0262 38.792 34.8269 38.5074 35.3854C37.8225 36.7294 36.7299 37.822 35.3859 38.5069C34.8274 38.7915 34.0266 39.0235 32.4607 39.1513C30.8532 39.2826 28.7738 39.2854 25.7145 39.2854H24.2859C21.2266 39.2854 19.1472 39.2826 17.5397 39.1513C15.9738 39.0235 15.1731 38.7915 14.6145 38.5069C13.2705 37.822 12.1778 36.7294 11.493 35.3854C11.2084 34.8269 10.9765 34.0262 10.8486 32.4603C10.7173 30.8528 10.7145 28.7733 10.7145 25.714V24.2854C10.7145 21.2262 10.7173 19.1467 10.8486 17.5392C10.9765 15.9733 11.2084 15.1726 11.493 14.614C12.1778 13.2701 13.2705 12.1773 14.6145 11.4925C15.1731 11.2079 15.9738 10.976 17.5397 10.8481C19.1472 10.7168 21.2266 10.714 24.2859 10.714Z" fill="white"/>
<defs>
<radialGradient id="paint0_radial_111_10" cx="0" cy="0" r="1" gradientUnits="userSpaceOnUse" gradientTransform="translate(17.8571 37.5) rotate(-55.3758) scale(45.5707)">
<stop stop-color="#B13589"/>
<stop offset="0.79309" stop-color="#C62F94"/>
<stop offset="1" stop-color="#8A3AC8"/>
</radialGradient>
<radialGradient id="paint1_radial_111_10" cx="0" cy="0" r="1" gradientUnits="userSpaceOnUse" gradientTransform="translate(16.0714 51.7857) rotate(-65.1363) scale(40.3468)">
<stop stop-color="#E0E8B7"/>
<stop offset="0.444662" stop-color="#FB8A2E"/>
<stop offset="0.71474" stop-color="#E2425C"/>
<stop offset="1" stop-color="#E2425C" stop-opacity="0"/>
</radialGradient>
<radialGradient id="paint2_radial_111_10" cx="0" cy="0" r="1" gradientUnits="userSpaceOnUse" gradientTransform="translate(-2.67857 1.78571) rotate(-8.1301) scale(69.448 14.8542)">
<stop offset="0.156701" stop-color="#406ADC"/>
<stop offset="0.467799" stop-color="#6A45BE"/>
<stop offset="1" stop-color="#6A45BE" stop-opacity="0"/>
</radialGradient>
</defs>
</svg>
