<svg width="50" height="50" viewBox="0 0 50 50" fill="none" xmlns="http://www.w3.org/2000/svg">
<path d="M50 25C50 11.1929 38.8071 0 25 0C11.1929 0 0 11.1929 0 25C0 38.8071 11.1929 50 25 50C38.8071 50 50 38.8071 50 25Z" fill="#1275B1"/>
<path d="M18.9618 13.7365C18.9618 15.4054 17.5152 16.7582 15.7309 16.7582C13.9465 16.7582 12.5 15.4054 12.5 13.7365C12.5 12.0677 13.9465 10.7148 15.7309 10.7148C17.5152 10.7148 18.9618 12.0677 18.9618 13.7365Z" fill="white"/>
<path d="M12.9419 18.9785H18.4647V35.7141H12.9419V18.9785Z" fill="white"/>
<path d="M27.3564 18.9783H21.8335V35.7138H27.3564C27.3564 35.7138 27.3564 30.4453 27.3564 27.1512C27.3564 25.1738 28.0315 23.1879 30.7253 23.1879C33.7696 23.1879 33.7514 25.7754 33.7371 27.7801C33.7185 30.4003 33.7628 33.0744 33.7628 35.7138H39.2856V26.8811C39.2389 21.2413 37.7692 18.6426 32.9344 18.6426C30.0631 18.6426 28.2833 19.9461 27.3564 21.1254V18.9783Z" fill="white"/>
</svg>
