<svg width="50" height="50" viewBox="0 0 50 50" fill="none" xmlns="http://www.w3.org/2000/svg">
<g clip-path="url(#clip0_111_17)">
<path d="M25 0C11.1928 0 0 11.1928 0 25C0 38.8072 11.1928 50 25 50C38.8072 50 50 38.8072 50 25C50 11.1928 38.8072 0 25 0Z" fill="#40B3E0"/>
<path d="M37.1647 14.3801L32.6995 36.8931C32.6995 36.8931 32.0751 38.4545 30.3577 37.7051L20.0534 29.8051L16.3065 27.9941L9.9991 25.8707C9.9991 25.8707 9.03113 25.5273 8.93738 24.7779C8.84383 24.0285 10.0304 23.6226 10.0304 23.6226L35.1038 13.7867C35.1038 13.7867 37.1647 12.8812 37.1647 14.3801Z" fill="white"/>
<path d="M19.2615 36.642C19.2615 36.642 18.9607 36.6139 18.5859 35.4271C18.2113 34.2406 16.3066 27.9957 16.3066 27.9957L31.4506 18.3785C31.4506 18.3785 32.325 17.8477 32.2937 18.3785C32.2937 18.3785 32.4498 18.4721 31.9814 18.9092C31.5131 19.3465 20.0848 29.6193 20.0848 29.6193" fill="#D2E5F1"/>
<path d="M24.0042 32.8346L19.9284 36.5506C19.9284 36.5506 19.6099 36.7924 19.2612 36.6408L20.0417 29.7383" fill="#B5CFE4"/>
</g>
<defs>
<clipPath id="clip0_111_17">
<rect width="50" height="50" fill="white"/>
</clipPath>
</defs>
</svg>
