<svg width="400" height="400" viewBox="0 0 400 400" fill="none" xmlns="http://www.w3.org/2000/svg">
<g clip-path="url(#clip0_1331_3580)">
<path d="M0 348.424C0 376.912 23.0915 400 51.5762 400H348.424C376.912 400 400 376.909 400 348.424V51.5762C400 23.0883 376.909 0 348.424 0H51.5762C23.0883 0 0 23.0915 0 51.5762V348.424Z" fill="#563D7C"/>
<path d="M165.871 176.935V120.288H215.733C220.482 120.288 225.061 120.684 229.471 121.476C233.881 122.267 237.781 123.68 241.173 125.716C244.565 127.751 247.279 130.577 249.314 134.196C251.349 137.814 252.367 142.449 252.367 148.103C252.367 158.279 249.314 165.628 243.208 170.151C237.103 174.673 229.301 176.935 219.804 176.935H165.871ZM112.617 78.9062V321.094H229.98C240.834 321.094 251.406 319.737 261.695 317.023C271.984 314.31 281.142 310.126 289.17 304.473C297.198 298.82 303.586 291.527 308.335 282.595C313.083 273.662 315.458 263.091 315.458 250.88C315.458 235.729 311.783 222.783 304.434 212.042C297.084 201.3 285.948 193.781 271.023 189.485C281.877 184.284 290.074 177.613 295.615 169.472C301.155 161.331 303.925 151.156 303.925 138.944C303.925 127.638 302.059 118.14 298.328 110.452C294.597 102.763 289.339 96.6011 282.555 91.9654C275.771 87.3296 267.631 83.9942 258.133 81.959C248.636 79.9238 238.121 78.9062 226.588 78.9062H112.617ZM165.871 279.712V213.229H223.874C235.407 213.229 244.678 215.886 251.688 221.2C258.699 226.514 262.204 235.39 262.204 247.827C262.204 254.159 261.129 259.36 258.981 263.43C256.833 267.5 253.95 270.723 250.332 273.097C246.714 275.472 242.53 277.168 237.781 278.185C233.033 279.203 228.058 279.712 222.857 279.712H165.871Z" fill="white"/>
</g>
<defs>
<clipPath id="clip0_1331_3580">
<rect width="400" height="400" fill="white"/>
</clipPath>
</defs>
</svg>
