<svg width="68" height="100" viewBox="0 0 68 100" fill="none" xmlns="http://www.w3.org/2000/svg">
<path d="M33.6729 48.184C33.6734 44.2441 35.2389 40.4657 38.0251 37.6799C40.8112 34.8941 44.5898 33.3291 48.5298 33.3291H50.6787C52.8829 33.3048 55.0699 33.7178 57.1134 34.5444C59.1568 35.371 61.0159 36.5948 62.5832 38.1448C64.1504 39.6948 65.3947 41.5403 66.2438 43.5744C67.093 45.6086 67.5302 47.7909 67.5302 49.9952C67.5302 52.1995 67.093 54.3819 66.2438 56.416C65.3947 58.4501 64.1504 60.2956 62.5832 61.8457C61.0159 63.3957 59.1568 64.6194 57.1134 65.446C55.0699 66.2726 52.8829 66.6857 50.6787 66.6613H48.5298C44.5902 66.6607 40.8121 65.0955 38.0264 62.3098C35.2407 59.5241 33.6754 55.746 33.6749 51.8064L33.6729 48.184Z" fill="#00B6FF"/>
<path d="M0 83.3312C0 78.9108 1.75599 74.6714 4.88168 71.5457C8.00737 68.4201 12.2467 66.6641 16.6671 66.6641H33.673V83.1597C33.673 92.4596 26.0506 99.9962 16.7508 99.9962C7.54682 99.9962 0 92.5351 0 83.3312Z" fill="#24CB71"/>
<path d="M33.6729 -0.00288578V33.3293H50.6787C52.8829 33.3536 55.0699 32.9406 57.1134 32.114C59.1568 31.2874 61.0159 30.0636 62.5832 28.5136C64.1504 26.9636 65.3947 25.1181 66.2438 23.084C67.093 21.0498 67.5302 18.8675 67.5302 16.6632C67.5302 14.4589 67.093 12.2765 66.2438 10.2424C65.3947 8.20825 64.1504 6.36276 62.5832 4.81275C61.0159 3.26274 59.1568 2.03901 57.1134 1.2124C55.0699 0.385789 52.8829 -0.0272767 50.6787 -0.00288578H33.6729Z" fill="#FF7237"/>
<path d="M0 16.6631C0 21.0835 1.75599 25.3228 4.88168 28.4485C8.00737 31.5742 12.2467 33.3302 16.6671 33.3302H33.673V-0.00195312H16.6671C12.2471 -0.00195316 8.00803 1.75376 4.8824 4.879C1.75677 8.00425 0.000541207 12.2431 0 16.6631Z" fill="#FF3737"/>
<path d="M0 49.9971C0 54.4175 1.75599 58.6568 4.88168 61.7825C8.00737 64.9082 12.2467 66.6642 16.6671 66.6642H33.673V33.332H16.6671C12.2471 33.332 8.00803 35.0877 4.8824 38.213C1.75677 41.3382 0.000541207 45.5771 0 49.9971Z" fill="#874FFF"/>
</svg>
