<svg width="400" height="400" viewBox="0 0 400 400" fill="none" xmlns="http://www.w3.org/2000/svg">
<path d="M8.36229 220.189C-2.78743 209.039 -2.78743 190.962 8.36229 179.812L179.812 8.36229C190.962 -2.78743 209.039 -2.78743 220.189 8.36229L391.637 179.812C402.787 190.962 402.787 209.039 391.637 220.189L220.189 391.637C209.039 402.787 190.962 402.787 179.812 391.637L8.36229 220.189Z" fill="#EE513B"/>
<path d="M144.984 43.7363L127.623 61.0983L172.465 105.94C170.65 109.832 169.637 114.172 169.637 118.749C169.637 131.743 177.802 142.83 189.28 147.16V256.855C177.802 261.185 169.637 272.272 169.637 285.266C169.637 302.032 183.229 315.623 199.995 315.623C216.76 315.623 230.352 302.032 230.352 285.266C230.352 273.486 223.642 263.272 213.835 258.241V147.31L256.699 190.175C254.973 193.988 254.013 198.22 254.013 202.678C254.013 219.443 267.605 233.035 284.37 233.035C301.136 233.035 314.727 219.443 314.727 202.678C314.727 185.912 301.136 172.32 284.37 172.32C281.112 172.32 277.975 172.833 275.032 173.783L228.996 127.748C229.877 124.905 230.352 121.882 230.352 118.749C230.352 101.983 216.76 88.3915 199.995 88.3915C196.862 88.3915 193.84 88.8662 190.996 89.7475L144.984 43.7363Z" fill="white"/>
</svg>
