<svg width="400" height="400" viewBox="0 0 400 400" fill="none" xmlns="http://www.w3.org/2000/svg">
<path d="M55.4688 359.375L23.4375 0H375.781L343.75 359.375L199.219 400" fill="#E34F26"/>
<path d="M200 368.75L316.406 336.719L343.75 28.9062H200" fill="#EF652A"/>
<path d="M200 162.5H141.406L137.5 117.188H200V73.4375H89.0625L100.781 207.031H200V162.5ZM199.219 277.344L150 264.062L146.875 228.906H103.125L108.594 298.438L199.219 323.438V277.344Z" fill="#EBEBEB"/>
<path d="M199.219 162.5V207.031H253.906L248.438 264.062L199.219 277.344V323.438L289.844 298.438L302.344 162.5H199.219ZM199.219 73.4375V117.188H306.25L310.156 73.4375H199.219Z" fill="white"/>
</svg>
