<svg width="400" height="400" viewBox="0 0 400 400" fill="none" xmlns="http://www.w3.org/2000/svg">
<g clip-path="url(#clip0_1330_3552)">
<path d="M340 0H60C26.8629 0 0 26.8629 0 60V340C0 373.137 26.8629 400 60 400H340C373.137 400 400 373.137 400 340V60C400 26.8629 373.137 0 340 0Z" fill="#F7DF1E"/>
<path d="M253.125 289.062C260.938 302.344 271.875 311.719 289.844 311.719C305.469 311.719 315.625 303.906 315.625 292.969C315.625 280.469 305.469 275.781 288.281 267.969L278.906 264.062C251.562 252.344 233.594 238.281 233.594 207.812C233.594 179.688 254.688 157.812 288.281 157.812C312.5 157.812 329.688 166.406 341.406 188.281L312.5 207.031C306.25 195.312 299.219 190.625 288.281 190.625C277.344 190.625 270.312 197.656 270.312 207.031C270.312 217.969 277.344 222.656 293.75 229.688L303.125 233.594C335.156 247.656 353.125 260.938 353.125 292.969C353.125 326.562 326.562 345.312 290.625 345.312C255.469 345.312 232.812 328.906 221.875 307.031L253.125 289.062ZM120.312 292.188C126.562 302.344 131.25 311.719 144.531 311.719C157.031 311.719 164.844 307.031 164.844 288.281V158.594H202.344V286.719C202.344 325.781 179.688 342.969 146.094 342.969C115.625 342.969 98.4375 327.344 89.8438 308.594L120.312 292.188Z" fill="black"/>
</g>
<defs>
<clipPath id="clip0_1330_3552">
<rect width="400" height="400" fill="white"/>
</clipPath>
</defs>
</svg>
