<svg width="400" height="387" viewBox="0 0 400 387" fill="none" xmlns="http://www.w3.org/2000/svg">
    <path fill-rule="evenodd" clip-rule="evenodd"
        d="M231.818 6.41016C229.083 6.41016 226.543 6.99674 224.198 7.77834C229.181 11.0998 231.916 15.4961 233.284 20.4775C233.383 21.1624 233.578 21.6507 233.674 22.334C233.773 22.9206 233.871 23.5072 233.871 24.0938C234.261 32.6899 231.623 33.7648 229.766 38.8445C226.933 45.3906 227.715 52.4235 231.134 58.0898C231.428 58.7747 231.818 59.5563 232.308 60.2396C228.595 35.523 249.208 31.8116 253.018 24.0923C253.311 17.3526 247.742 12.8595 243.347 9.73311C239.144 7.19327 235.334 6.41016 231.818 6.41016ZM262.885 11.9797C262.492 14.2262 262.787 13.6396 262.689 14.8128C262.592 15.5944 262.592 16.571 262.494 17.3526C262.299 18.1342 262.104 18.9158 261.811 19.6959C261.614 20.479 261.322 21.2606 261.029 22.0423C260.637 22.8239 260.346 23.5072 259.956 24.2888C259.661 24.6788 259.466 25.0704 259.172 25.4604L258.586 26.3403C258.098 27.0237 257.609 27.7085 257.121 28.2936C256.534 28.8802 256.048 29.5635 255.363 30.0518V30.1501C254.776 30.6384 254.191 31.225 253.506 31.7133C251.455 33.2765 249.11 34.4497 246.96 35.9146C246.277 36.4029 245.593 36.793 245.007 37.3795C244.323 37.8679 243.737 38.3562 243.152 38.9428C242.467 39.5293 241.979 40.1144 241.392 40.7993C240.904 41.3843 240.319 42.0692 239.927 42.7525C239.439 43.4359 238.95 44.1207 238.559 44.804C238.169 45.5856 237.876 46.2705 237.486 47.0506C237.192 47.8322 236.899 48.517 236.704 49.2986C236.443 50.103 236.215 50.9175 236.019 51.7402C235.922 52.1318 235.922 52.6201 235.824 53.0101C235.726 53.4017 235.726 53.7917 235.629 54.1833C235.629 54.9634 235.531 55.8433 235.531 56.6249C235.531 57.2114 235.531 57.7965 235.629 58.3831C235.629 59.1647 235.727 59.9463 235.922 60.8262C236.021 61.6078 236.216 62.3894 236.411 63.1695C236.704 63.9526 236.899 64.7327 237.192 65.5143C237.389 66.0041 237.681 66.4924 237.876 66.8825L215.407 58.1881C211.597 57.1147 207.884 56.1365 204.075 55.2567L197.92 53.7917C192.041 52.6191 186.107 51.7386 180.141 51.1536C179.945 51.1536 179.846 51.0569 179.651 51.0569C173.79 50.4703 168.026 50.177 162.164 50.177C157.866 50.177 153.568 50.3735 149.367 50.6653C143.407 51.0569 137.448 51.8385 131.49 52.8151C130.023 53.0101 128.557 53.3034 127.093 53.5967C124.064 54.1818 121.134 54.8666 118.301 55.55L113.904 56.7231C112.438 57.3082 111.071 57.993 109.703 58.5781L106.48 60.0446C106.283 60.1413 106.088 60.1413 105.992 60.2396C105.015 60.7279 104.135 61.118 103.255 61.6063C102.963 61.7045 102.767 61.8028 102.572 61.8996C101.498 62.3879 100.424 62.9745 99.5436 63.4628C98.8603 63.7561 98.1755 64.1476 97.5904 64.4394C97.2971 64.6359 96.9055 64.831 96.7105 64.9292C95.8306 65.4175 94.9523 65.9059 94.1707 66.3942C93.2908 66.8825 92.5092 67.3708 91.8259 67.8606C91.1425 68.3474 90.4577 68.7375 89.8726 69.2273C89.7743 69.3241 89.6761 69.3241 89.5793 69.4223C88.9927 69.8124 88.3094 70.3007 87.7228 70.7905L87.5263 70.9855L86.0629 72.1572C85.8663 72.2554 85.6698 72.4505 85.4763 72.5487C84.988 72.9388 84.4996 73.4271 84.0098 73.8187C83.9131 74.0137 83.718 74.112 83.6198 74.2087C83.0332 74.7953 82.4481 75.2836 81.8615 75.8702C81.7633 75.8702 81.7633 75.9684 81.665 76.0667C81.0799 76.5535 80.4934 77.1401 79.9068 77.7267C79.81 77.8234 79.81 77.9217 79.7118 77.9217C79.1993 78.4197 78.7105 78.9413 78.2468 79.4849C78.0503 79.6799 77.7585 79.875 77.5635 80.07C77.0752 80.6566 76.4886 81.2431 75.902 81.8297C75.8037 82.0248 75.6087 82.1215 75.5119 82.318C74.7303 83.0996 74.0455 83.8813 73.2639 84.6613L72.9721 84.9546C71.4089 86.6161 69.7474 88.2761 67.9892 89.7425C66.2571 91.2882 64.4297 92.7237 62.518 94.0406C60.6234 95.3689 58.6675 96.6074 56.6567 97.7521C54.6629 98.8465 52.608 99.8257 50.5021 100.685C48.4244 101.567 46.3054 102.349 44.1525 103.028C40.0495 103.908 35.8481 105.568 32.2334 105.861C31.4518 105.861 30.5735 106.058 29.7918 106.155C28.912 106.35 28.1304 106.545 27.3488 106.741L25.0055 107.62C24.2223 107.913 23.4407 108.303 22.6591 108.693C21.9758 109.183 21.1942 109.573 20.5109 110.063C19.826 110.551 19.1427 111.136 18.5561 111.723C17.8728 112.211 17.1894 112.896 16.6028 113.481C16.0163 114.166 15.4312 114.751 14.9414 115.436C14.453 116.217 13.868 116.901 13.4764 117.682C12.9881 118.366 12.4998 119.149 12.1097 119.929C11.7167 120.809 11.3281 121.59 11.0348 122.469C10.7265 123.31 10.4331 124.157 10.155 125.008C9.95995 125.79 9.76493 126.572 9.66666 127.353C9.66666 127.452 9.56839 127.55 9.56839 127.647C9.37337 128.526 9.37337 129.698 9.2751 130.285C9.17835 130.968 9.08008 131.555 9.08008 132.238C9.08008 132.63 9.08008 133.118 9.17835 133.508C9.27661 134.193 9.37488 134.778 9.5699 135.364C9.76493 135.951 9.95995 136.536 10.2532 137.123V137.221C10.5465 137.807 10.9366 138.393 11.3266 138.979C11.7197 139.566 12.1097 140.152 12.5965 140.737C13.0864 141.226 13.673 141.812 14.2595 142.301C14.8446 142.887 15.4312 143.374 16.1145 143.864C18.4593 145.915 19.0459 146.6 22.0741 148.162C22.5624 148.455 23.0507 148.65 23.6373 148.943C23.7355 148.943 23.8323 149.042 23.9306 149.042C23.9306 149.238 23.9306 149.335 24.0273 149.53C24.1256 150.312 24.3206 151.093 24.5171 151.875C24.7032 152.679 24.9644 153.463 25.2972 154.218C25.5905 154.806 25.7871 155.391 26.0788 155.978C26.1771 156.174 26.2754 156.369 26.3721 156.466C26.7637 157.248 27.1537 157.933 27.5453 158.616L29.0102 160.667C29.4986 161.253 30.0836 161.937 30.6717 162.522C31.2568 163.109 31.8434 163.597 32.5267 164.184C32.5267 164.184 32.625 164.282 32.7232 164.282C33.3083 164.771 33.8949 165.259 34.4815 165.649C35.1648 166.139 35.8482 166.529 36.6298 166.919C37.3146 167.312 38.0962 167.7 38.8778 167.994C39.4629 168.287 40.1477 168.482 40.8311 168.679C40.9293 168.777 41.0261 168.777 41.2211 168.874C41.6142 168.972 42.101 169.069 42.491 169.167C42.1993 174.443 42.101 179.425 42.8841 181.183C43.761 183.136 48.0605 177.176 52.3586 170.339C51.772 177.08 51.382 184.992 52.3586 187.337C53.4335 189.779 59.2948 182.159 64.3745 173.758C133.639 157.736 196.847 205.606 203.49 273.21C202.22 262.657 189.226 256.796 183.266 258.262C180.336 265.492 175.353 274.771 167.342 280.536C168.042 274.012 167.712 267.419 166.366 260.997C164.217 269.985 160.016 278.386 154.251 285.615C144.972 286.3 135.691 281.806 130.806 275.065C130.415 274.771 130.318 274.186 130.025 273.795C129.731 273.111 129.438 272.428 129.243 271.743C128.958 271.088 128.761 270.398 128.657 269.692C128.558 269.008 128.558 268.325 128.558 267.543V266.077C128.657 265.393 128.852 264.71 129.047 264.025C129.243 263.342 129.438 262.659 129.731 261.974C130.121 261.29 130.415 260.607 130.903 259.922C132.565 255.234 132.565 251.423 129.536 249.176C128.95 248.793 128.328 248.466 127.68 248.2C127.288 248.101 126.8 247.906 126.41 247.808C126.117 247.711 125.922 247.613 125.628 247.515C124.944 247.32 124.26 247.125 123.577 247.027C122.91 246.834 122.219 246.736 121.525 246.735C120.84 246.636 120.059 246.538 119.376 246.538C118.887 246.538 118.399 246.636 117.909 246.636C117.129 246.636 116.446 246.735 115.762 246.93C115.077 247.028 114.394 247.126 113.709 247.321C113.026 247.516 112.341 247.711 111.658 248.005C110.974 248.298 110.388 248.591 109.705 248.883C109.118 249.176 108.531 249.568 107.848 249.861C85.0862 264.71 98.6653 299.488 114.198 309.55C108.336 310.625 102.377 311.895 100.717 313.165L100.52 313.362C104.723 315.901 109.118 318.05 113.709 319.906C119.962 321.958 126.605 323.814 129.536 324.596V324.693C137.63 326.352 145.907 326.943 154.155 326.451C197.432 323.423 232.894 290.5 239.342 247.126C239.539 248.003 239.734 248.786 239.929 249.666C240.222 251.424 240.612 253.279 240.807 255.136V255.234C241.004 256.112 241.1 256.992 241.199 257.774V258.166C241.297 259.044 241.395 259.924 241.395 260.705C241.492 261.779 241.589 262.854 241.589 263.929V265.492C241.589 265.98 241.687 266.565 241.687 267.055C241.687 267.642 241.589 268.227 241.589 268.813V270.181C241.589 270.865 241.49 271.451 241.49 272.135C241.49 272.526 241.49 272.916 241.394 273.405C241.394 274.089 241.295 274.773 241.295 275.554C241.197 275.848 241.197 276.141 241.197 276.433C241.1 277.214 241.002 277.899 240.904 278.681C240.904 278.974 240.904 279.266 240.807 279.559C240.709 280.536 240.514 281.416 240.415 282.392V282.589C240.22 283.467 240.025 284.444 239.829 285.325V285.617L239.244 288.255C239.244 288.352 239.146 288.548 239.146 288.645C238.949 289.525 238.754 290.403 238.462 291.283V291.576C238.169 292.553 237.876 293.433 237.681 294.313C237.582 294.41 237.582 294.506 237.582 294.506L236.702 297.438C236.312 298.414 236.019 299.294 235.629 300.271C235.237 301.248 234.944 302.224 234.554 303.104C234.163 304.081 233.773 304.961 233.381 305.937H233.284C232.891 306.816 232.503 307.794 232.014 308.674C231.916 308.965 231.818 309.16 231.721 309.355C231.623 309.454 231.623 309.552 231.524 309.649C225.175 322.446 215.797 333.682 204.073 342.475C203.291 342.963 202.51 343.548 201.73 344.134C201.533 344.331 201.24 344.428 201.045 344.623C200.362 345.111 199.677 345.599 198.897 346.089L199.188 346.674H199.287L203.39 346.088H203.488C206.028 345.698 208.568 345.209 211.108 344.721C211.791 344.623 212.574 344.428 213.257 344.233C213.746 344.134 214.136 344.036 214.624 343.939C215.309 343.841 215.992 343.646 216.676 343.548C217.262 343.353 217.849 343.255 218.435 343.06C228.205 340.716 237.681 337.492 246.767 333.682C231.233 354.88 210.423 371.976 186.098 383.212C197.333 382.43 208.568 380.574 219.412 377.447C258.782 365.821 291.9 339.348 311.73 303.689C307.705 326.308 298.732 347.758 285.452 366.505C294.92 360.26 303.667 352.986 311.535 344.818C333.419 321.959 347.78 292.943 352.664 261.78C355.997 277.241 356.952 293.119 355.497 308.867C426.031 210.491 361.359 108.5 334.297 81.6347C334.2 81.4397 334.102 81.3414 334.102 81.1464C334.005 81.2447 334.005 81.2447 334.005 81.3429C334.005 81.2432 334.005 81.2431 333.907 81.1464C333.907 82.318 333.809 83.4897 333.711 84.6629C333.419 86.9109 333.126 89.0592 332.734 91.209C332.246 93.3573 331.661 95.5071 331.074 97.6569C330.379 99.7719 329.597 101.857 328.731 103.908C327.832 105.933 326.854 107.921 325.798 109.868C324.724 111.724 323.551 113.677 322.281 115.436C321.025 117.253 319.688 119.013 318.275 120.712C316.81 122.47 315.248 124.033 313.685 125.595C312.765 126.437 311.82 127.252 310.852 128.038C310.07 128.723 309.386 129.308 308.604 129.993C306.846 131.36 305.088 132.631 303.134 133.803C301.278 134.974 299.325 136.146 297.37 137.124C295.318 138.101 293.267 138.981 291.217 139.86C289.164 140.641 287.014 141.325 284.866 141.91C282.705 142.492 280.521 142.981 278.319 143.377C276.073 143.767 273.826 143.962 271.677 144.159C270.113 144.255 268.55 144.354 266.987 144.354C264.74 144.354 262.494 144.157 260.344 143.962C258.098 143.767 255.851 143.474 253.701 142.985C251.455 142.594 249.305 142.009 247.155 141.324H247.058C249.208 141.129 251.356 140.934 253.506 140.544C255.71 140.159 257.895 139.669 260.052 139.077C262.201 138.497 264.32 137.812 266.402 137.026C268.55 136.244 270.602 135.268 272.555 134.289C274.608 133.314 276.465 132.239 278.418 131.066C280.274 129.796 282.129 128.526 283.889 127.16C285.639 125.799 287.303 124.331 288.87 122.763C290.532 121.297 291.997 119.637 293.462 117.976C294.89 116.265 296.258 114.505 297.565 112.699C297.761 112.408 297.956 112.018 298.151 111.724C299.128 110.161 300.105 108.598 300.985 107.035C302.059 105.098 303.037 103.109 303.916 101.075C304.798 99.0306 305.58 96.9444 306.259 94.8237C306.944 92.7722 307.432 90.6209 307.921 88.4741C308.312 86.2261 308.702 84.0763 308.897 81.928C309.094 79.6814 309.289 77.4334 309.289 75.2851C309.289 73.7219 309.191 72.1587 309.092 70.5955C308.899 68.3489 308.606 66.1991 308.312 64.0494C307.927 61.8454 307.438 59.6609 306.846 57.5032C306.162 55.4532 305.479 53.3034 304.698 51.2519C303.916 49.2004 302.939 47.1488 301.961 45.1956C300.888 43.2408 299.813 41.2876 298.64 39.4311C297.393 37.6004 296.09 35.8086 294.733 34.0581C293.262 32.3734 291.764 30.7127 290.239 29.0767C289.416 28.2381 288.569 27.4234 287.699 26.6336C283.322 23.2347 278.791 20.0399 274.12 17.0593C273.436 16.6693 272.85 16.376 272.165 16.0827C268.942 14.0312 265.914 12.9563 262.885 11.9797Z"
        fill="url(#paint0_linear_1331_3589)" />
    <defs>
        <linearGradient id="paint0_linear_1331_3589" x1="9.08008" y1="6.41016" x2="100097"
            y2="6.41016" gradientUnits="userSpaceOnUse">
            <stop stop-color="#EA2845" />
            <stop offset="1" stop-color="#EA2868" />
        </linearGradient>
    </defs>
</svg>