<svg width="400" height="400" viewBox="0 0 400 400" fill="none" xmlns="http://www.w3.org/2000/svg">
    <g clip-path="url(#clip0_1332_3592)">
        <path
            d="M340 0H60C26.8629 0 0 26.8629 0 60V340C0 373.137 26.8629 400 60 400H340C373.137 400 400 373.137 400 340V60C400 26.8629 373.137 0 340 0Z"
            fill="#3178C6" />
        <path
            d="M182.031 221.875H232.031V189.844H92.1875V221.875H142.188V364.844H182.031V221.875ZM247.656 357.031C253.984 360.312 261.719 362.734 270.312 364.375C278.906 366.016 288.281 366.797 297.656 366.797C307.031 366.797 315.625 365.938 324.219 364.141C332.812 362.344 339.844 359.375 346.094 355.547C352.422 351.406 357.812 346.172 360.938 339.141C364.062 332.109 366.484 324.297 366.484 314.141C366.484 307.031 365.391 300.859 363.281 295.391C361.172 289.922 358.125 285.234 353.906 281.328C349.922 277.188 345.312 273.516 339.844 270.391C334.375 267.266 328.125 263.984 321.094 261.016C315.938 258.906 311.719 256.875 307.031 254.844C302.969 252.813 299.453 250.781 296.875 248.75C293.984 246.641 291.797 244.453 290.234 242.187C288.672 239.844 287.891 237.266 287.891 234.375C287.891 231.719 288.586 229.297 290 227.109C291.414 224.922 293.359 223.125 295.859 221.563C298.359 220 301.484 218.828 305.234 217.969C308.906 217.109 312.969 216.719 317.734 216.719C321.016 216.719 324.453 216.961 327.891 217.453C331.484 217.945 335.156 218.703 338.828 219.719C342.5 220.734 346.094 221.984 349.766 223.547C353.203 225.109 356.406 226.906 359.141 228.938V192.219C353.203 189.953 346.641 188.234 339.609 187.141C332.578 186.047 324.766 185.5 315.391 185.5C306.016 185.5 297.422 186.516 288.828 188.469C280.234 190.422 273.203 193.547 266.953 197.844C260.625 202.063 256.016 207.219 252.109 214.25C248.438 220.812 246.641 228.312 246.641 237.687C246.641 249.406 250 259.562 256.797 267.375C263.516 275.969 273.984 282.219 287.266 288.469C292.656 290.656 297.422 292.844 302.109 294.953C306.797 297.063 310.703 299.25 313.828 301.516C317.188 303.781 319.844 306.281 321.641 308.938C323.594 311.594 324.609 314.719 324.609 318.312C324.609 320.813 324 323.156 322.813 325.344C321.625 327.531 319.766 329.406 317.266 330.969C314.766 332.531 311.719 333.781 307.891 334.719C304.219 335.578 300.078 336.047 294.609 336.047C286.016 336.047 277.422 334.562 269.609 331.594C261.016 328.625 253.203 324.172 247.656 319.531V357.031Z"
            fill="white" />
    </g>
    <defs>
        <clipPath id="clip0_1332_3592">
            <rect width="400" height="400" fill="white" />
        </clipPath>
    </defs>
</svg>